<svg width="329" height="282" viewBox="0 0 329 282" fill="none" xmlns="http://www.w3.org/2000/svg">
<rect opacity="0.9" width="329" height="282" fill="#2C2C54" fill-opacity="0.76"/>
<g filter="url(#filter0_d)">
<rect x="26.9002" y="38.6743" width="238.026" height="49.1486" fill="white"/>
</g>
<g filter="url(#filter1_d)">
<rect x="26.9002" y="128.914" width="155.695" height="43.5086" fill="#444444"/>
</g>
<path d="M44.2969 154.437H39.1602L38.1836 157.367H35.0684L40.3613 143.148H43.0762L48.3984 157.367H45.2832L44.2969 154.437ZM39.9512 152.064H43.5059L41.7188 146.742L39.9512 152.064ZM53.8562 155.013H60.077V157.367H50.9266V143.148H53.8562V155.013ZM74.0211 150.58C74.0211 151.979 73.7737 153.206 73.2789 154.261C72.7841 155.316 72.0745 156.13 71.15 156.703C70.232 157.275 69.1773 157.562 67.9859 157.562C66.8076 157.562 65.7561 157.279 64.8316 156.712C63.9072 156.146 63.191 155.339 62.6832 154.29C62.1754 153.236 61.9182 152.025 61.9117 150.658V149.955C61.9117 148.555 62.1624 147.324 62.6637 146.263C63.1715 145.195 63.8844 144.378 64.8023 143.812C65.7268 143.239 66.7815 142.953 67.9664 142.953C69.1513 142.953 70.2027 143.239 71.1207 143.812C72.0452 144.378 72.7581 145.195 73.2594 146.263C73.7672 147.324 74.0211 148.552 74.0211 149.945V150.58ZM71.0523 149.935C71.0523 148.444 70.7854 147.311 70.2516 146.537C69.7177 145.762 68.956 145.374 67.9664 145.374C66.9833 145.374 66.2249 145.759 65.691 146.527C65.1572 147.289 64.887 148.408 64.8805 149.886V150.58C64.8805 152.031 65.1474 153.158 65.6812 153.958C66.2151 154.759 66.9833 155.16 67.9859 155.16C68.969 155.16 69.7242 154.775 70.2516 154.007C70.7789 153.233 71.0458 152.106 71.0523 150.628V149.935ZM88.6 155.57C88.0727 156.201 87.3272 156.693 86.3637 157.044C85.4001 157.389 84.3324 157.562 83.1605 157.562C81.9301 157.562 80.8493 157.295 79.9184 156.761C78.9939 156.221 78.2777 155.44 77.7699 154.417C77.2686 153.395 77.0115 152.194 76.9984 150.814V149.847C76.9984 148.428 77.2361 147.201 77.7113 146.165C78.1931 145.124 78.8832 144.33 79.7816 143.783C80.6866 143.229 81.7445 142.953 82.9555 142.953C84.6417 142.953 85.96 143.356 86.9105 144.164C87.8611 144.964 88.4242 146.133 88.6 147.669H85.7484C85.6182 146.856 85.3285 146.26 84.8793 145.882C84.4366 145.505 83.8246 145.316 83.0434 145.316C82.0473 145.316 81.2888 145.69 80.768 146.439C80.2471 147.188 79.9835 148.301 79.977 149.779V150.687C79.977 152.178 80.2602 153.304 80.8266 154.066C81.393 154.828 82.223 155.208 83.3168 155.208C84.4171 155.208 85.2016 154.974 85.6703 154.505V152.054H83.0043V149.896H88.6V155.57ZM97.4465 152.162H95.1125V157.367H92.1828V143.148H97.466C99.1457 143.148 100.441 143.522 101.353 144.271C102.264 145.02 102.72 146.078 102.72 147.445C102.72 148.415 102.508 149.225 102.085 149.876C101.668 150.521 101.034 151.035 100.181 151.419L103.257 157.23V157.367H100.112L97.4465 152.162ZM95.1125 149.789H97.4758C98.2115 149.789 98.7811 149.603 99.1848 149.232C99.5884 148.854 99.7902 148.337 99.7902 147.679C99.7902 147.009 99.5982 146.481 99.2141 146.097C98.8365 145.713 98.2538 145.521 97.466 145.521H95.1125V149.789ZM109.271 157.367H106.342V143.148H109.271V157.367ZM123.606 145.521H119.251V157.367H116.321V145.521H112.024V143.148H123.606V145.521ZM138.058 157.367H135.129V151.273H129.416V157.367H126.486V143.148H129.416V148.91H135.129V143.148H138.058V157.367ZM150.381 151.205H144.756V155.013H151.358V157.367H141.827V143.148H151.338V145.521H144.756V148.91H150.381V151.205ZM158.105 143.148L161.757 153.46L165.39 143.148H169.238V157.367H166.298V153.48L166.591 146.771L162.753 157.367H160.741L156.913 146.781L157.206 153.48V157.367H154.277V143.148H158.105Z" fill="#CBCBCB"/>
<path d="M35.5234 71.4208V54.3583H40.7734C42.2734 54.3583 43.6133 54.6981 44.793 55.3778C45.9805 56.0497 46.9062 57.0106 47.5703 58.2606C48.2344 59.5028 48.5664 60.9169 48.5664 62.5028V63.288C48.5664 64.8739 48.2383 66.2841 47.582 67.5184C46.9336 68.7528 46.0156 69.7098 44.8281 70.3895C43.6406 71.0692 42.3008 71.413 40.8086 71.4208H35.5234ZM39.0391 57.2059V68.5966H40.7383C42.1133 68.5966 43.1641 68.1473 43.8906 67.2489C44.6172 66.3505 44.9883 65.0653 45.0039 63.3934V62.4911C45.0039 60.7567 44.6445 59.4442 43.9258 58.5536C43.207 57.6552 42.1562 57.2059 40.7734 57.2059H39.0391ZM61.9478 67.9052H55.7838L54.6119 71.4208H50.8736L57.2252 54.3583H60.483L66.8697 71.4208H63.1314L61.9478 67.9052ZM56.733 65.0575H60.9986L58.8541 58.6708L56.733 65.0575ZM81.3409 57.2059H76.1144V71.4208H72.5988V57.2059H67.4425V54.3583H81.3409V57.2059ZM93.0231 67.9052H86.8591L85.6872 71.4208H81.9489L88.3005 54.3583H91.5583L97.945 71.4208H94.2067L93.0231 67.9052ZM87.8083 65.0575H92.0739L89.9294 58.6708L87.8083 65.0575ZM117.243 66.9442C117.243 66.2802 117.009 65.7723 116.54 65.4208C116.071 65.0614 115.227 64.6864 114.009 64.2958C112.79 63.8973 111.825 63.5067 111.114 63.1239C109.177 62.077 108.208 60.6669 108.208 58.8934C108.208 57.9716 108.466 57.1512 108.981 56.4325C109.505 55.7059 110.251 55.1395 111.22 54.7333C112.196 54.327 113.29 54.1239 114.501 54.1239C115.72 54.1239 116.805 54.3466 117.759 54.7919C118.712 55.2294 119.45 55.8505 119.973 56.6552C120.505 57.4598 120.77 58.3739 120.77 59.3973H117.255C117.255 58.6161 117.009 58.0106 116.516 57.5809C116.024 57.1434 115.333 56.9247 114.442 56.9247C113.583 56.9247 112.915 57.1083 112.438 57.4755C111.962 57.8348 111.723 58.3114 111.723 58.9052C111.723 59.4598 112.001 59.9247 112.555 60.2997C113.118 60.6747 113.942 61.0262 115.028 61.3544C117.028 61.9559 118.485 62.702 119.399 63.5927C120.313 64.4833 120.77 65.5927 120.77 66.9208C120.77 68.3973 120.212 69.5575 119.095 70.4012C117.977 71.2372 116.473 71.6552 114.583 71.6552C113.27 71.6552 112.075 71.4169 110.997 70.9403C109.919 70.4559 109.095 69.7958 108.524 68.9598C107.962 68.1239 107.68 67.1552 107.68 66.0536H111.208C111.208 67.9364 112.333 68.8778 114.583 68.8778C115.419 68.8778 116.071 68.7098 116.54 68.3739C117.009 68.0302 117.243 67.5536 117.243 66.9442ZM137.445 57.2059H132.218V71.4208H128.702V57.2059H123.546V54.3583H137.445V57.2059ZM147.217 65.1747H144.416V71.4208H140.9V54.3583H147.24C149.256 54.3583 150.81 54.8075 151.904 55.7059C152.998 56.6044 153.545 57.8739 153.545 59.5145C153.545 60.6786 153.291 61.6512 152.783 62.4325C152.283 63.2059 151.521 63.8231 150.498 64.2841L154.189 71.2567V71.4208H150.416L147.217 65.1747ZM144.416 62.327H147.252C148.135 62.327 148.818 62.1044 149.303 61.6591C149.787 61.2059 150.029 60.5848 150.029 59.7958C150.029 58.9911 149.799 58.3583 149.338 57.8973C148.885 57.4364 148.185 57.2059 147.24 57.2059H144.416V62.327ZM170.583 54.3583V65.5966C170.583 67.4637 169.997 68.9403 168.825 70.0262C167.661 71.1122 166.067 71.6552 164.043 71.6552C162.051 71.6552 160.469 71.1278 159.297 70.0731C158.125 69.0184 157.528 67.5692 157.504 65.7255V54.3583H161.02V65.62C161.02 66.7372 161.286 67.5536 161.817 68.0692C162.356 68.577 163.098 68.8309 164.043 68.8309C166.02 68.8309 167.024 67.7919 167.055 65.7137V54.3583H170.583ZM188.3 65.7372C188.167 67.5731 187.487 69.0184 186.261 70.0731C185.042 71.1278 183.433 71.6552 181.433 71.6552C179.245 71.6552 177.523 70.9208 176.265 69.452C175.015 67.9755 174.39 65.952 174.39 63.3817V62.3387C174.39 60.6981 174.679 59.2528 175.257 58.0028C175.835 56.7528 176.659 55.7958 177.73 55.1317C178.808 54.4598 180.058 54.1239 181.48 54.1239C183.448 54.1239 185.034 54.6512 186.237 55.7059C187.44 56.7606 188.136 58.2411 188.323 60.1473H184.808C184.722 59.0458 184.413 58.2489 183.882 57.7567C183.358 57.2567 182.558 57.0067 181.48 57.0067C180.308 57.0067 179.429 57.4286 178.843 58.2723C178.265 59.1083 177.968 60.4091 177.952 62.1747V63.4637C177.952 65.3075 178.23 66.6552 178.784 67.5067C179.347 68.3583 180.23 68.7841 181.433 68.7841C182.519 68.7841 183.327 68.538 183.858 68.0458C184.398 67.5458 184.706 66.7762 184.784 65.7372H188.3ZM204.541 57.2059H199.314V71.4208H195.798V57.2059H190.642V54.3583H204.541V57.2059ZM220.91 54.3583V65.5966C220.91 67.4637 220.324 68.9403 219.152 70.0262C217.988 71.1122 216.395 71.6552 214.371 71.6552C212.379 71.6552 210.797 71.1278 209.625 70.0731C208.453 69.0184 207.856 67.5692 207.832 65.7255V54.3583H211.348V65.62C211.348 66.7372 211.613 67.5536 212.145 68.0692C212.684 68.577 213.426 68.8309 214.371 68.8309C216.348 68.8309 217.352 67.7919 217.383 65.7137V54.3583H220.91ZM231.55 65.1747H228.749V71.4208H225.233V54.3583H231.573C233.589 54.3583 235.143 54.8075 236.237 55.7059C237.331 56.6044 237.878 57.8739 237.878 59.5145C237.878 60.6786 237.624 61.6512 237.116 62.4325C236.616 63.2059 235.854 63.8231 234.831 64.2841L238.522 71.2567V71.4208H234.749L231.55 65.1747ZM228.749 62.327H231.585C232.467 62.327 233.151 62.1044 233.635 61.6591C234.12 61.2059 234.362 60.5848 234.362 59.7958C234.362 58.9911 234.132 58.3583 233.671 57.8973C233.217 57.4364 232.518 57.2059 231.573 57.2059H228.749V62.327ZM252.267 64.0262H245.517V68.5966H253.439V71.4208H242.001V54.3583H253.415V57.2059H245.517V61.2723H252.267V64.0262Z" fill="#666666"/>
<path d="M44.6914 115.484H38.7842L37.6611 118.853H34.0786L40.1655 102.502H43.2876L49.4082 118.853H45.8257L44.6914 115.484ZM39.6938 112.755H43.7817L41.7266 106.634L39.6938 112.755ZM65.6124 118.853H62.2433L55.6847 108.094V118.853H52.3155V102.502H55.6847L62.2545 113.283V102.502H65.6124V118.853ZM69.9348 118.853V102.502H74.9661C76.4036 102.502 77.6876 102.827 78.8181 103.479C79.9561 104.123 80.8433 105.043 81.4797 106.241C82.1161 107.432 82.4343 108.787 82.4343 110.307V111.059C82.4343 112.579 82.1199 113.93 81.491 115.113C80.8695 116.296 79.9898 117.214 78.8518 117.865C77.7138 118.516 76.4298 118.846 74.9997 118.853H69.9348ZM73.3039 105.231V116.147H74.9324C76.2501 116.147 77.2571 115.716 77.9534 114.855C78.6496 113.994 79.0053 112.762 79.0203 111.16V110.296C79.0203 108.633 78.6759 107.376 77.987 106.522C77.2982 105.661 76.2912 105.231 74.9661 105.231H73.3039Z" fill="white"/>
<path d="M292.725 221.558L298.925 210.924C299.922 209.212 302.417 209.212 303.415 210.924L309.614 221.558C310.612 223.27 309.365 225.41 307.369 225.41H294.97C292.974 225.41 291.727 223.27 292.725 221.558Z" fill="#79B2FF"/>
<path d="M248.795 201.593L259.997 190.498L271.2 201.593L259.997 212.688L248.795 201.593Z" fill="#B0E7F8"/>
<path d="M210.031 193.547H226.28V209.64H210.031V193.547Z" fill="#D8EC84"/>
<path d="M268.123 231.937C268.123 236.382 264.485 239.984 259.998 239.984C255.511 239.984 251.873 236.382 251.873 231.937C251.873 227.494 255.511 223.891 259.998 223.891C264.485 223.891 268.123 227.494 268.123 231.937Z" fill="#F5737F"/>
<path d="M272.185 141.012V155.495H247.811V141.012H272.185Z" fill="#FFCB7C"/>
<path d="M272.185 166.761V181.245H247.811V166.761H272.185Z" fill="#FFCB7C"/>
<path d="M311.373 220.552L305.174 209.918C304.699 209.104 304.012 208.477 303.201 208.087V201.593C303.201 200.482 302.291 199.581 301.17 199.581H289.482C288.36 199.581 287.45 200.482 287.45 201.593C287.45 202.704 288.36 203.604 289.482 203.604H299.139V208.086C298.328 208.477 297.64 209.104 297.166 209.917L290.966 220.552C290.131 221.986 290.131 223.698 290.966 225.131C291.802 226.565 293.298 227.421 294.97 227.421H299.139V231.443H270.141C269.88 226.126 265.43 221.88 259.998 221.88C254.398 221.88 249.842 226.392 249.842 231.937C249.842 237.484 254.398 241.996 259.998 241.996C264.344 241.996 268.061 239.277 269.507 235.467H301.169C302.291 235.467 303.201 234.566 303.201 233.455V227.421H307.369C309.04 227.421 310.538 226.565 311.373 225.131C312.209 223.698 312.209 221.986 311.373 220.552ZM259.998 237.973C256.638 237.973 253.905 235.265 253.905 231.937C253.905 228.61 256.638 225.903 259.998 225.903C263.358 225.903 266.091 228.61 266.091 231.937C266.091 235.265 263.358 237.973 259.998 237.973ZM307.855 223.12C307.781 223.246 307.637 223.398 307.369 223.398H294.97C294.702 223.398 294.557 223.246 294.484 223.12C294.41 222.993 294.35 222.794 294.484 222.564L300.684 211.93C300.817 211.699 301.022 211.651 301.169 211.651C301.317 211.651 301.521 211.7 301.655 211.93L307.855 222.564C307.989 222.794 307.929 222.993 307.855 223.12Z" fill="black"/>
<path d="M247.954 203.604L258.561 214.111C258.958 214.504 259.478 214.7 259.998 214.7C260.518 214.7 261.038 214.504 261.435 214.111L272.637 203.016C273.43 202.23 273.43 200.956 272.637 200.17L262.029 189.665V183.256H272.185C273.306 183.256 274.216 182.356 274.216 181.245V166.761C274.216 165.65 273.306 164.749 272.185 164.749H262.029V157.507H272.185C273.306 157.507 274.216 156.606 274.216 155.495V141.012C274.216 139.901 273.306 139 272.185 139H247.811C246.689 139 245.78 139.901 245.78 141.012V155.495C245.78 156.606 246.689 157.507 247.811 157.507H257.967V164.749H247.811C246.689 164.749 245.78 165.65 245.78 166.761V171.991H218.156C217.034 171.991 216.125 172.891 216.125 174.002V191.535H210.031C208.909 191.535 208 192.435 208 193.547V209.64C208 210.751 208.909 211.651 210.031 211.651H226.28C227.402 211.651 228.312 210.751 228.312 209.64V203.604H247.954ZM249.842 143.023H270.154V153.484H249.842V143.023ZM259.998 209.843L251.668 201.594L259.998 193.343L268.328 201.593L259.998 209.843ZM249.842 168.773H270.154V179.233H249.842V168.773ZM220.187 176.014H245.78V181.245C245.78 182.356 246.689 183.256 247.811 183.256H257.967V189.665L247.954 199.581H228.312V193.547C228.312 192.435 227.402 191.535 226.28 191.535H220.187V176.014ZM224.249 207.628H212.063V195.558H224.249V207.628Z" fill="black"/>
<path d="M280.34 203.604C280.877 203.604 281.398 203.391 281.778 203.017C282.156 202.64 282.373 202.123 282.373 201.594C282.373 201.063 282.156 200.544 281.778 200.17C281.398 199.796 280.877 199.58 280.34 199.58C279.805 199.58 279.282 199.796 278.904 200.17C278.526 200.544 278.309 201.063 278.309 201.594C278.309 202.123 278.526 202.64 278.904 203.017C279.282 203.391 279.806 203.604 280.34 203.604Z" fill="black"/>
<defs>
<filter id="filter0_d" x="22.9002" y="38.6743" width="246.026" height="57.1486" filterUnits="userSpaceOnUse" color-interpolation-filters="sRGB">
<feFlood flood-opacity="0" result="BackgroundImageFix"/>
<feColorMatrix in="SourceAlpha" type="matrix" values="0 0 0 0 0 0 0 0 0 0 0 0 0 0 0 0 0 0 127 0"/>
<feOffset dy="4"/>
<feGaussianBlur stdDeviation="2"/>
<feColorMatrix type="matrix" values="0 0 0 0 0 0 0 0 0 0 0 0 0 0 0 0 0 0 0.25 0"/>
<feBlend mode="normal" in2="BackgroundImageFix" result="effect1_dropShadow"/>
<feBlend mode="normal" in="SourceGraphic" in2="effect1_dropShadow" result="shape"/>
</filter>
<filter id="filter1_d" x="22.9002" y="128.914" width="163.695" height="51.5086" filterUnits="userSpaceOnUse" color-interpolation-filters="sRGB">
<feFlood flood-opacity="0" result="BackgroundImageFix"/>
<feColorMatrix in="SourceAlpha" type="matrix" values="0 0 0 0 0 0 0 0 0 0 0 0 0 0 0 0 0 0 127 0"/>
<feOffset dy="4"/>
<feGaussianBlur stdDeviation="2"/>
<feColorMatrix type="matrix" values="0 0 0 0 0 0 0 0 0 0 0 0 0 0 0 0 0 0 0.25 0"/>
<feBlend mode="normal" in2="BackgroundImageFix" result="effect1_dropShadow"/>
<feBlend mode="normal" in="SourceGraphic" in2="effect1_dropShadow" result="shape"/>
</filter>
</defs>
</svg>
